<?xml version="1.0" encoding="iso-8859-1"?>
<!-- Generator: Adobe Illustrator 19.0.0, SVG Export Plug-In . SVG Version: 6.00 Build 0)  -->
<svg version="1.1" id="Layer_1" xmlns="http://www.w3.org/2000/svg" xmlns:xlink="http://www.w3.org/1999/xlink" x="0px" y="0px"
	 viewBox="0 0 512 512" style="enable-background:new 0 0 512 512;" xml:space="preserve">
<path style="fill:#FFA834;" d="M395.016,417.479c-18.264-10.544-36.826-25.008-54.893-43.341
	c-79.858-81.051-119.765-207.022-89.143-281.362c1.277-3.098,2.666-6.042,4.143-8.863c1.308,0.045,2.623,0.109,3.947,0.206l0,0l0,0
	l0,0l0,0l74.759-43.445c-8.046-5.892-16.097-11.149-24.094-15.768c-48.683-28.107-95.56-32.555-129.762-12.679l-74.759,43.445
	c0.127-0.074,0.258-0.14,0.387-0.213C88.002,65.566,73.725,82.07,64.248,105.075c-36.029,87.463,10.928,235.662,104.869,331.004
	c21.261,21.581,43.114,38.609,64.608,51.018c48.714,28.125,95.617,32.555,129.823,12.633c-0.023,0.014-0.046,0.028-0.069,0.042
	l74.759-43.445c7.943-4.616,15.202-10.543,21.642-17.79C439.715,437.562,417.594,430.514,395.016,417.479z"/>
<path style="fill:#FFB657;" d="M105.214,55.672l74.759-43.445c34.203-19.876,81.079-15.428,129.762,12.68
	c7.997,4.617,16.048,9.876,24.094,15.767L259.07,84.119c-8.046-5.892-16.097-11.149-24.094-15.767
	C186.293,40.244,139.417,35.796,105.214,55.672z"/>
<path style="fill:#FFEB9A;" d="M320.257,460.924c22.577,13.035,44.699,20.083,64.863,21.058
	c-34.169,38.454-91.41,39.749-151.396,5.116c-21.493-12.41-43.347-29.438-64.608-51.018
	C75.176,340.737,28.219,192.538,64.248,105.075c27.876-67.67,97.246-79.151,170.728-36.723c7.997,4.617,16.048,9.876,24.094,15.767
	c-36.773-2.687-67.354,14.494-82.849,52.103c-30.621,74.339,9.286,200.311,89.143,281.362
	C283.431,435.917,301.993,450.38,320.257,460.924z"/>
<g>
</g>
<g>
</g>
<g>
</g>
<g>
</g>
<g>
</g>
<g>
</g>
<g>
</g>
<g>
</g>
<g>
</g>
<g>
</g>
<g>
</g>
<g>
</g>
<g>
</g>
<g>
</g>
<g>
</g>
</svg>
