<?xml version="1.0" encoding="iso-8859-1"?>
<!-- Generator: Adobe Illustrator 19.0.0, SVG Export Plug-In . SVG Version: 6.00 Build 0)  -->
<svg version="1.1" id="Layer_1" xmlns="http://www.w3.org/2000/svg" xmlns:xlink="http://www.w3.org/1999/xlink" x="0px" y="0px"
	 viewBox="0 0 511.999 511.999" style="enable-background:new 0 0 511.999 511.999;" xml:space="preserve">
<path style="fill:#FFA834;" d="M402.91,405.987c-16.965-9.794-34.205-23.228-50.986-40.256
	c-74.175-75.283-111.242-192.289-82.799-261.338c1.186-2.878,2.476-5.612,3.848-8.233c1.215,0.042,2.436,0.101,3.667,0.191l0,0l0,0
	l0,0l0,0l69.439-40.353c-7.474-5.472-14.951-10.356-22.379-14.645c-45.218-26.107-88.759-30.24-120.527-11.778l-69.439,40.353
	c0.118-0.069,0.241-0.13,0.358-0.198c-16.347,9.388-29.607,24.716-38.41,46.085c-33.465,81.238,10.15,218.89,97.405,307.448
	c19.748,20.045,40.046,35.862,60.01,47.387c45.247,26.124,88.812,30.238,120.584,11.734c-0.022,0.012-0.043,0.027-0.065,0.04
	l69.439-40.353c7.378-4.287,14.121-9.793,20.102-16.525C444.428,424.641,423.881,418.094,402.91,405.987z"/>
<path style="fill:#FFB657;" d="M133.733,69.928l69.439-40.353c31.768-18.462,75.31-14.331,120.527,11.778
	c7.429,4.289,14.906,9.173,22.379,14.645l-69.439,40.353c-7.474-5.472-14.951-10.356-22.379-14.645
	C209.041,55.598,165.501,51.467,133.733,69.928z"/>
<path style="fill:#FFEB9A;" d="M333.471,446.34c20.971,12.108,41.518,18.654,60.247,19.56
	c-31.737,35.718-84.904,36.921-140.622,4.752c-19.965-11.527-40.262-27.342-60.01-47.387
	c-87.254-88.558-130.87-226.21-97.405-307.449c25.892-62.854,90.325-73.518,158.579-34.109c7.428,4.289,14.906,9.173,22.379,14.645
	c-34.156-2.496-62.562,13.462-76.953,48.395c-28.442,69.049,8.625,186.055,82.799,261.338
	C299.266,423.112,316.507,436.546,333.471,446.34z"/>
<path style="fill:#C3DFF7;" d="M469.871,328.55c-2.176-1.257-4.287-2.216-6.384-3.075c0.527-3.01,0.841-6.234,0.852-9.712
	c0.091-32.114-22.475-71.215-50.423-87.351c-14.06-8.118-26.797-8.87-35.995-3.525l-18.049,10.488
	c-2.387-2.198-4.908-4.112-7.531-5.627c-7.385-4.264-14.076-4.661-18.906-1.854l-19.453,11.305
	c-8.984-3.492-17.028-3.191-23.177,0.383l-36.623,21.283c0.025-0.015,0.051-0.026,0.075-0.04
	c-7.629,4.39-12.365,13.777-12.403,27.137c-0.076,26.823,18.786,59.494,42.116,72.963l149.003,86.026
	c11.804,6.815,22.488,7.408,30.181,2.871c-0.038,0.022-0.069,0.052-0.106,0.074l36.623-21.283
	c7.587-4.409,12.292-13.784,12.329-27.11C512.076,374.698,493.213,342.027,469.871,328.55z"/>
<path style="fill:#D2E7F8;" d="M377.292,249.695c27.948,16.136,50.513,55.237,50.423,87.351c-0.009,3.477-0.325,6.701-0.852,9.712
	c2.097,0.86,4.208,1.819,6.384,3.075c23.343,13.477,42.206,46.148,42.13,72.955c-0.076,26.823-19.062,37.642-42.405,24.165
	L283.97,360.927c-23.329-13.47-42.192-46.14-42.116-72.963c0.076-26.807,19.062-37.627,42.391-24.157
	c1.645,0.95,3.251,2.014,4.843,3.147c0.001-0.244-0.025-0.488-0.025-0.732c0.048-16.866,11.978-23.663,26.654-15.189
	c4.791,2.766,9.259,6.827,13.14,11.618C335.334,242.685,354.586,236.586,377.292,249.695z"/>
<path style="fill:#C3DFF7;" d="M174.56,340.209c-1.666-0.962-3.282-1.696-4.888-2.354c0.403-2.305,0.645-4.772,0.652-7.434
	c0.07-24.585-17.206-54.52-38.602-66.872c-10.764-6.215-20.514-6.791-27.556-2.698l-13.817,8.03
	c-1.827-1.683-3.757-3.148-5.766-4.308c-5.654-3.265-10.776-3.569-14.474-1.419l-14.892,8.655
	c-6.877-2.673-13.036-2.442-17.743,0.294L9.438,288.393c0.019-0.011,0.039-0.02,0.057-0.03c-5.84,3.36-9.466,10.547-9.495,20.775
	c-0.058,20.534,14.382,45.545,32.242,55.858l114.07,65.858c9.036,5.217,17.215,5.671,23.105,2.198
	c-0.028,0.017-0.053,0.04-0.081,0.056l28.037-16.294c5.809-3.376,9.41-10.553,9.439-20.754
	C206.87,375.537,192.43,350.526,174.56,340.209z"/>
<path style="fill:#D2E7F8;" d="M103.686,279.842c21.395,12.352,38.671,42.287,38.602,66.872c-0.007,2.662-0.249,5.13-0.652,7.434
	c1.606,0.658,3.222,1.392,4.888,2.354c17.87,10.318,32.311,35.329,32.252,55.851c-0.058,20.534-14.592,28.817-32.463,18.499
	L32.242,364.996C14.382,354.684-0.058,329.672,0,309.138c0.058-20.523,14.592-28.806,32.452-18.494
	c1.26,0.727,2.489,1.542,3.707,2.41c0.001-0.186-0.02-0.374-0.019-0.56c0.036-12.912,9.169-18.115,20.405-11.629
	c3.668,2.117,7.088,5.227,10.059,8.895C71.564,274.475,86.302,269.805,103.686,279.842z"/>
<path style="fill:#C3DFF7;" d="M169.947,101.546c-1.33-0.767-2.619-1.354-3.901-1.879c0.322-1.839,0.514-3.808,0.521-5.933
	c0.055-19.618-13.729-43.504-30.802-53.362c-8.589-4.959-16.37-5.418-21.989-2.153l-11.026,6.407
	c-1.458-1.343-2.998-2.512-4.601-3.437c-4.512-2.604-8.598-2.847-11.55-1.133l-11.884,6.906c-5.488-2.133-10.402-1.948-14.158,0.234
	L38.187,60.199c0.015-0.008,0.031-0.016,0.046-0.024c-4.66,2.681-7.554,8.416-7.577,16.578
	c-0.047,16.386,11.476,36.344,25.727,44.572l91.023,52.552c7.21,4.163,13.737,4.526,18.437,1.754
	c-0.023,0.014-0.042,0.032-0.065,0.045l22.372-13.001c4.635-2.694,7.509-8.421,7.532-16.56
	C195.73,129.737,184.207,109.779,169.947,101.546z"/>
<path style="fill:#D2E7F8;" d="M113.393,53.375c17.073,9.857,30.858,33.743,30.802,53.362c-0.006,2.124-0.198,4.094-0.521,5.933
	c1.282,0.525,2.571,1.111,3.901,1.879c14.26,8.233,25.783,28.191,25.736,44.567c-0.047,16.386-11.644,22.995-25.904,14.762
	l-91.023-52.552c-14.252-8.229-25.774-28.186-25.727-44.572c0.047-16.376,11.644-22.986,25.896-14.757
	c1.005,0.58,1.986,1.231,2.958,1.922c0-0.149-0.016-0.298-0.015-0.447c0.029-10.303,7.316-14.456,16.282-9.279
	c2.926,1.69,5.656,4.171,8.027,7.098C87.761,49.093,99.522,45.367,113.393,53.375z"/>
<g>
</g>
<g>
</g>
<g>
</g>
<g>
</g>
<g>
</g>
<g>
</g>
<g>
</g>
<g>
</g>
<g>
</g>
<g>
</g>
<g>
</g>
<g>
</g>
<g>
</g>
<g>
</g>
<g>
</g>
</svg>
