<?xml version="1.0" encoding="iso-8859-1"?>
<!-- Generator: Adobe Illustrator 19.0.0, SVG Export Plug-In . SVG Version: 6.00 Build 0)  -->
<svg version="1.1" id="Layer_1" xmlns="http://www.w3.org/2000/svg" xmlns:xlink="http://www.w3.org/1999/xlink" x="0px" y="0px"
	 viewBox="0 0 512.001 512.001" style="enable-background:new 0 0 512.001 512.001;" xml:space="preserve">
<polygon style="fill:#EEBF00;" points="454.283,313.348 414.934,250.878 432.03,203.602 380.589,162.245 370.608,97.238 
	320.922,88.019 286.492,22.723 248.436,44.838 202.227,0 157.504,25.991 154.746,40.271 140.424,35.243 95.7,61.234 111.12,122.735 
	72.88,144.958 112.229,207.429 95.152,254.716 146.593,296.073 156.554,361.069 206.26,370.299 240.671,435.584 278.727,413.467 
	324.934,458.283 369.658,432.293 372.412,418.034 386.738,423.063 431.461,397.073 416.042,335.572 "/>
<polygon style="fill:#FECE00;" points="241.768,48.714 276.198,114.01 325.884,123.228 335.865,188.236 387.306,229.593 
	370.21,276.869 409.559,339.339 369.984,356.244 386.738,423.063 335.231,404.983 324.934,458.283 275.338,410.18 240.671,435.584 
	206.26,370.299 156.554,361.069 146.593,296.073 95.152,254.716 112.229,207.429 72.88,144.958 112.453,128.053 95.7,61.234 
	147.208,79.314 157.504,25.991 207.1,74.117 "/>
<path style="fill:#FFDE56;" d="M241.992,107.849c-32.36-18.683-61.68-20.418-82.852-8.114l-12.573,7.307
	c0.067-0.038,0.139-0.07,0.206-0.108c-21.02,12.097-34.067,37.966-34.172,74.793c-0.21,73.88,51.752,163.881,116.059,201.009
	c33.283,19.216,63.33,20.458,84.622,6.975c-0.594,0.376-1.172,0.781-1.78,1.134l12.573-7.307
	c20.9-12.146,33.861-37.971,33.964-74.674C358.249,234.971,306.288,144.97,241.992,107.849z"/>
<path style="fill:#FFE577;" d="M229.419,115.156c64.295,37.121,116.257,127.122,116.048,201.015
	c-0.21,73.88-52.511,103.686-116.806,66.564c-64.307-37.128-116.268-127.128-116.059-201.009
	C112.811,107.832,165.112,78.028,229.419,115.156z"/>
<path style="fill:#C3DFF7;" d="M392.493,359.51c-2.743-1.584-5.403-2.792-8.047-3.876c0.664-3.794,1.061-7.857,1.074-12.24
	c0.115-40.475-28.326-89.755-63.55-110.091c-17.721-10.231-33.772-11.179-45.365-4.443l-22.747,13.219
	c-3.007-2.771-6.185-5.183-9.492-7.092c-9.308-5.374-17.74-5.875-23.828-2.337l-24.517,14.248c-11.323-4.4-21.46-4.021-29.21,0.483
	l-39.129,22.78c0.031-0.018,0.064-0.032,0.096-0.05c-9.615,5.533-15.584,17.363-15.632,34.202
	c-0.096,33.806,23.676,74.981,53.08,91.957l187.792,108.421c14.876,8.588,28.341,9.337,38.038,3.619
	c-0.047,0.027-0.087,0.065-0.134,0.093l39.129-22.78c9.562-5.557,15.492-17.374,15.54-34.167
	C445.686,417.671,421.913,376.495,392.493,359.51z"/>
<path style="fill:#D2E7F8;" d="M282.842,256.084c35.223,20.337,63.664,69.616,63.549,110.091c-0.012,4.381-0.409,8.446-1.074,12.24
	c2.644,1.084,5.305,2.292,8.047,3.876c29.42,16.985,53.192,58.161,53.096,91.948c-0.096,33.806-24.024,47.442-53.443,30.455
	L165.226,396.271c-29.403-16.976-53.175-58.152-53.08-91.957c0.096-33.787,24.024-47.422,53.427-30.446
	c2.074,1.197,4.097,2.539,6.103,3.967c0.001-0.307-0.032-0.615-0.031-0.922c0.06-21.256,15.095-29.824,33.593-19.143
	c6.038,3.486,11.669,8.605,16.561,14.644C229.962,247.248,254.225,239.561,282.842,256.084z"/>
<path style="fill:#C3DFF7;" d="M222.625,101.054c-1.574-0.909-3.101-1.602-4.618-2.224c0.381-2.177,0.609-4.509,0.616-7.023
	c0.065-23.226-16.254-51.504-36.467-63.175c-10.169-5.872-19.38-6.415-26.033-2.549l-13.053,7.585
	c-1.726-1.59-3.55-2.974-5.447-4.07c-5.342-3.084-10.18-3.371-13.674-1.341l-14.069,8.176c-6.497-2.525-12.315-2.307-16.762,0.277
	L66.634,52.104c0.018-0.01,0.036-0.019,0.055-0.029c-5.517,3.175-8.943,9.964-8.97,19.626c-0.055,19.399,13.586,43.027,30.46,52.768
	l107.762,62.216c8.536,4.929,16.264,5.359,21.828,2.077c-0.027,0.016-0.05,0.037-0.077,0.053l26.486-15.392
	c5.487-3.189,8.889-9.969,8.917-19.606C253.149,134.43,239.508,110.801,222.625,101.054z"/>
<path style="fill:#D2E7F8;" d="M155.67,44.025c20.213,11.669,36.533,39.948,36.467,63.175c-0.007,2.514-0.235,4.847-0.616,7.023
	c1.517,0.622,3.044,1.316,4.618,2.224c16.883,9.747,30.524,33.376,30.469,52.763c-0.055,19.399-13.786,27.224-30.668,17.477
	L88.178,124.47c-16.872-9.741-30.515-33.369-30.46-52.768c0.055-19.388,13.786-27.212,30.658-17.471
	c1.19,0.687,2.351,1.457,3.503,2.276c0-0.177-0.019-0.353-0.018-0.53c0.034-12.197,8.662-17.114,19.277-10.985
	c3.464,2,6.696,4.938,9.503,8.402C125.326,38.954,139.249,34.544,155.67,44.025z"/>
<g>
</g>
<g>
</g>
<g>
</g>
<g>
</g>
<g>
</g>
<g>
</g>
<g>
</g>
<g>
</g>
<g>
</g>
<g>
</g>
<g>
</g>
<g>
</g>
<g>
</g>
<g>
</g>
<g>
</g>
</svg>
