<?xml version="1.0" encoding="iso-8859-1"?>
<!-- Generator: Adobe Illustrator 19.0.0, SVG Export Plug-In . SVG Version: 6.00 Build 0)  -->
<svg version="1.1" id="Layer_1" xmlns="http://www.w3.org/2000/svg" xmlns:xlink="http://www.w3.org/1999/xlink" x="0px" y="0px"
	 viewBox="0 0 512 512" style="enable-background:new 0 0 512 512;" xml:space="preserve">
<g>
	<path style="fill:#59A4FF;" d="M336.894,442.836l-13.915,8.086c-0.912,0.784-18.242,15.677-18.274,27.213
		c-0.032,11.53,8.074,25.578,18.108,31.371c5.197,3,9.886,3.194,13.21,1.089c-0.093,0.059-0.183,0.122-0.279,0.178l13.915-8.086
		c3.263-1.896,5.285-5.927,5.301-11.656C354.992,479.494,337.798,444.67,336.894,442.836z"/>
	<path style="fill:#59A4FF;" d="M249.028,408.228c-0.912,0.783-18.247,15.673-18.28,27.21c-0.032,11.53,8.074,25.578,18.113,31.373
		c5.194,2.999,9.884,3.193,13.208,1.088c-0.093,0.059-0.183,0.122-0.279,0.177l13.915-8.086c3.263-1.896,5.286-5.926,5.302-11.655
		c0.032-11.535-17.16-46.361-18.066-48.193L249.028,408.228z"/>
	<path style="fill:#59A4FF;" d="M175.32,365.672c-0.912,0.784-18.247,15.673-18.28,27.21c-0.032,11.53,8.074,25.578,18.113,31.373
		c5.194,3,9.885,3.193,13.209,1.087c-0.093,0.059-0.183,0.122-0.279,0.178l13.915-8.086c3.263-1.896,5.286-5.926,5.302-11.655
		c0.032-11.535-17.16-46.361-18.066-48.193L175.32,365.672z"/>
</g>
<g>
	<path style="fill:#9BC9FD;" d="M322.978,450.924c0.905,1.832,18.098,36.658,18.066,48.193c-0.032,11.53-8.192,16.185-18.231,10.39
		c-10.034-5.793-18.141-19.841-18.108-31.371C304.736,466.601,322.066,451.707,322.978,450.924z"/>
	<path style="fill:#9BC9FD;" d="M230.749,435.438c0.032-11.535,17.368-26.426,18.28-27.21c0.905,1.833,18.098,36.658,18.066,48.193
		c-0.032,11.53-8.197,16.183-18.231,10.39C238.823,461.016,230.715,446.968,230.749,435.438z"/>
	<path style="fill:#9BC9FD;" d="M157.04,392.882c0.032-11.535,17.367-26.426,18.28-27.21c0.905,1.832,18.098,36.658,18.066,48.193
		c-0.032,11.53-8.197,16.183-18.231,10.39C165.114,418.46,157.008,404.412,157.04,392.882z"/>
</g>
<polygon style="fill:#EEBF00;" points="427.647,271.256 393.583,217.177 408.384,176.252 363.852,140.451 355.212,84.175 
	312.201,76.196 282.395,19.67 249.452,38.815 209.451,0 170.735,22.499 168.347,34.861 155.949,30.509 117.233,53.008 
	130.581,106.247 97.478,125.485 131.541,179.565 116.758,220.499 161.289,256.301 169.913,312.565 212.942,320.555 242.729,377.071 
	275.674,357.926 315.674,396.721 354.39,374.222 356.774,361.879 369.175,366.232 407.891,343.733 394.543,290.493 "/>
<polygon style="fill:#FECE00;" points="243.679,42.169 273.484,98.695 316.496,106.675 325.136,162.95 369.668,198.751 
	354.866,239.676 388.931,293.755 354.672,308.39 369.175,366.232 324.587,350.581 315.674,396.721 272.74,355.08 242.729,377.071 
	212.942,320.555 169.912,312.565 161.289,256.301 116.759,220.499 131.541,179.565 97.478,125.485 131.736,110.851 117.233,53.008 
	161.821,68.66 170.735,22.499 213.668,64.161 "/>
<path style="fill:#FFDE56;" d="M243.874,93.361c-28.013-16.173-53.395-17.674-71.723-7.024l-10.884,6.325
	c0.058-0.034,0.12-0.061,0.178-0.094c-18.196,10.473-29.492,32.866-29.582,64.746c-0.181,63.956,44.8,141.867,100.469,174.007
	c28.813,16.635,54.822,17.71,73.254,6.038c-0.515,0.326-1.015,0.676-1.541,0.982l10.884-6.325
	c18.092-10.515,29.311-32.87,29.401-64.642C344.513,203.407,299.531,125.495,243.874,93.361z"/>
<path style="fill:#FFE577;" d="M232.99,99.686c55.659,32.134,100.64,110.045,100.458,174.012
	c-0.181,63.957-45.457,89.757-101.116,57.623c-55.668-32.141-100.65-110.051-100.469-174.007
	C132.046,93.348,177.321,67.547,232.99,99.686z"/>
<path style="fill:#C3DFF7;" d="M374.158,309.889c-2.375-1.371-4.677-2.418-6.966-3.356c0.575-3.285,0.918-6.802,0.929-10.595
	c0.099-35.038-24.521-77.697-55.013-95.302c-15.34-8.857-29.236-9.678-39.271-3.846l-19.691,11.443
	c-2.604-2.399-5.355-4.487-8.216-6.139c-8.058-4.652-15.357-5.086-20.627-2.023l-21.224,12.334
	c-9.802-3.809-18.578-3.48-25.286,0.418l-33.872,19.719c0.027-0.016,0.055-0.028,0.083-0.044
	c-8.323,4.79-13.491,15.031-13.532,29.608c-0.083,29.264,20.496,64.909,45.949,79.605l162.566,93.857
	c12.878,7.435,24.535,8.083,32.928,3.133c-0.041,0.024-0.075,0.057-0.116,0.081l33.872-19.72c8.278-4.81,13.411-15.04,13.452-29.577
	C420.204,360.238,399.625,324.593,374.158,309.889z"/>
<path style="fill:#D2E7F8;" d="M279.236,220.357c30.491,17.604,55.112,60.265,55.013,95.302c-0.01,3.793-0.354,7.311-0.929,10.595
	c2.289,0.938,4.591,1.984,6.966,3.355c25.468,14.704,46.047,50.348,45.964,79.596c-0.083,29.264-20.797,41.069-46.264,26.365
	L177.42,341.713c-25.453-14.695-46.033-50.34-45.949-79.605c0.083-29.248,20.797-41.052,46.25-26.357
	c1.796,1.037,3.546,2.198,5.283,3.433c0.001-0.266-0.027-0.533-0.027-0.799c0.052-18.4,13.067-25.817,29.08-16.572
	c5.227,3.018,10.101,7.449,14.335,12.676C233.46,212.708,254.463,206.054,279.236,220.357z"/>
<path style="fill:#C3DFF7;" d="M227.108,87.48c-1.362-0.786-2.684-1.387-3.998-1.926c0.33-1.885,0.527-3.903,0.533-6.08
	c0.057-20.106-14.07-44.586-31.568-54.688c-8.803-5.082-16.777-5.554-22.535-2.207l-11.3,6.566
	c-1.494-1.377-3.073-2.575-4.715-3.523c-4.624-2.67-8.812-2.918-11.836-1.161l-12.179,7.078c-5.625-2.185-10.661-1.998-14.51,0.24
	l-22.93,13.326c0.016-0.009,0.031-0.016,0.047-0.025c-4.777,2.749-7.742,8.626-7.765,16.991
	c-0.048,16.793,11.762,37.247,26.367,45.68l93.286,53.859c7.39,4.267,14.079,4.638,18.895,1.798
	c-0.023,0.014-0.043,0.032-0.066,0.046l22.929-13.325c4.751-2.76,7.696-8.63,7.719-16.973
	C253.532,116.371,241.722,95.917,227.108,87.48z"/>
<path style="fill:#D2E7F8;" d="M169.147,38.111c17.497,10.102,31.625,34.582,31.568,54.688c-0.006,2.177-0.203,4.196-0.533,6.08
	c1.313,0.538,2.634,1.139,3.998,1.926c14.615,8.437,26.424,28.892,26.375,45.675c-0.047,16.793-11.934,23.566-26.548,15.129
	l-93.286-53.859c-14.606-8.433-26.415-28.887-26.367-45.68c0.047-16.783,11.934-23.557,26.54-15.125
	c1.03,0.595,2.035,1.261,3.032,1.971c0-0.153-0.016-0.306-0.016-0.459c0.03-10.559,7.498-14.815,16.687-9.509
	c3,1.732,5.797,4.274,8.227,7.274C142.879,33.722,154.931,29.904,169.147,38.111z"/>
<g>
</g>
<g>
</g>
<g>
</g>
<g>
</g>
<g>
</g>
<g>
</g>
<g>
</g>
<g>
</g>
<g>
</g>
<g>
</g>
<g>
</g>
<g>
</g>
<g>
</g>
<g>
</g>
<g>
</g>
</svg>
