<?xml version="1.0" encoding="iso-8859-1"?>
<!-- Generator: Adobe Illustrator 19.0.0, SVG Export Plug-In . SVG Version: 6.00 Build 0)  -->
<svg version="1.1" id="Layer_1" xmlns="http://www.w3.org/2000/svg" xmlns:xlink="http://www.w3.org/1999/xlink" x="0px" y="0px"
	 viewBox="0 0 512 512" style="enable-background:new 0 0 512 512;" xml:space="preserve">
<path style="fill:#D8D8DA;" d="M426.667,177.231c0-94.257-76.41-170.667-170.668-170.667c-94.255,0-170.665,76.41-170.665,170.667
	C38.206,177.231,0,215.437,0,262.565s38.206,85.333,85.333,85.333h341.333c47.128,0,85.333-38.206,85.333-85.333
	S473.794,177.231,426.667,177.231z"/>
<path style="fill:#C5C5CA;" d="M426.667,177.231c0-94.257-76.41-170.667-170.668-170.667v341.333h170.668
	c47.128,0,85.333-38.206,85.333-85.333S473.794,177.231,426.667,177.231z"/>
<g>
	<path style="fill:#EDEDED;" d="M256,413.538c-14.478,0-26.256-11.779-26.256-26.256s11.779-26.256,26.256-26.256
		s26.256,11.779,26.256,26.256S270.478,413.538,256,413.538z"/>
	<path style="fill:#EDEDED;" d="M256,321.642c-14.478,0-26.256-11.779-26.256-26.256s11.779-26.256,26.256-26.256
		s26.256,11.779,26.256,26.256S270.478,321.642,256,321.642z"/>
	<path style="fill:#EDEDED;" d="M176.408,367.589c-4.596,0-9.133-1.216-13.119-3.517c-12.539-7.239-16.85-23.328-9.615-35.865
		c4.678-8.101,13.393-13.132,22.747-13.132c4.598,0,9.136,1.217,13.123,3.518c6.072,3.505,10.417,9.167,12.232,15.943
		c1.816,6.774,0.884,13.85-2.623,19.923C194.48,362.558,185.764,367.589,176.408,367.589z"/>
	<path style="fill:#EDEDED;" d="M176.422,459.487c-9.354,0-18.07-5.029-22.745-13.127c-7.24-12.537-2.929-28.626,9.605-35.866
		c3.99-2.304,8.527-3.521,13.124-3.521c9.354,0,18.071,5.031,22.746,13.13c7.239,12.53,2.932,28.621-9.603,35.864
		C185.555,458.271,181.018,459.487,176.422,459.487z"/>
	<path style="fill:#EDEDED;" d="M255.997,505.435c-7.014,0-13.606-2.731-18.566-7.69c-4.959-4.96-7.689-11.553-7.689-18.566
		c0-14.478,11.78-26.256,26.258-26.256c14.473,0,26.251,11.775,26.256,26.249c-0.005,14.487-11.783,26.262-26.254,26.263l0,0
		C256.003,505.435,255.999,505.435,255.997,505.435z"/>
	<path style="fill:#EDEDED;" d="M335.578,459.488c-4.599,0-9.137-1.217-13.126-3.521c-6.069-3.503-10.415-9.166-12.229-15.944
		c-1.814-6.774-0.882-13.849,2.624-19.922c4.668-8.095,13.384-13.128,22.743-13.128c4.594,0,9.128,1.214,13.112,3.512
		c12.548,7.256,16.853,23.343,9.618,35.874C353.65,454.456,344.934,459.488,335.578,459.488z"/>
	<path style="fill:#EDEDED;" d="M335.594,367.59c-9.354,0-18.071-5.031-22.746-13.13c-3.507-6.064-4.441-13.143-2.624-19.922
		c1.814-6.77,6.155-12.431,12.222-15.939c4.008-2.309,8.54-3.524,13.131-3.524c9.355,0,18.072,5.031,22.747,13.13
		c3.507,6.068,4.44,13.145,2.624,19.923c-1.816,6.775-6.16,12.438-12.236,15.944C344.728,366.373,340.191,367.59,335.594,367.59z"/>
</g>
<g>
</g>
<g>
</g>
<g>
</g>
<g>
</g>
<g>
</g>
<g>
</g>
<g>
</g>
<g>
</g>
<g>
</g>
<g>
</g>
<g>
</g>
<g>
</g>
<g>
</g>
<g>
</g>
<g>
</g>
</svg>
