<?xml version="1.0" encoding="iso-8859-1"?>
<!-- Generator: Adobe Illustrator 19.0.0, SVG Export Plug-In . SVG Version: 6.00 Build 0)  -->
<svg version="1.1" id="Layer_1" xmlns="http://www.w3.org/2000/svg" xmlns:xlink="http://www.w3.org/1999/xlink" x="0px" y="0px"
	 viewBox="0 0 512 512" style="enable-background:new 0 0 512 512;" xml:space="preserve">
<polygon style="fill:#EEBF00;" points="410.708,244.683 379.983,195.901 393.333,158.986 353.164,126.692 345.37,75.929 
	306.572,68.732 279.687,17.744 249.97,35.013 213.888,0 178.964,20.295 176.811,31.446 165.628,27.52 130.704,47.815 142.745,95.84 
	112.885,113.192 143.61,161.974 130.276,198.899 170.445,231.194 178.223,281.946 217.036,289.153 243.906,340.132 273.624,322.863 
	309.705,357.857 344.629,337.562 346.779,326.429 357.965,330.356 392.888,310.06 380.848,262.036 "/>
<polygon style="fill:#FECE00;" points="244.762,38.039 271.648,89.027 310.447,96.225 318.241,146.987 358.409,179.281 
	345.058,216.196 375.785,264.978 344.883,278.179 357.965,330.356 317.745,316.238 309.705,357.857 270.977,320.296 
	243.906,340.132 217.036,289.153 178.223,281.946 170.445,231.194 130.276,198.899 143.61,161.974 112.885,113.192 143.786,99.992 
	130.704,47.815 170.925,61.933 178.964,20.295 217.693,57.875 "/>
<path style="fill:#FFDE56;" d="M244.939,84.215c-25.269-14.588-48.163-15.943-64.696-6.336l-9.818,5.706
	c0.052-0.03,0.109-0.054,0.161-0.085c-16.413,9.446-26.602,29.646-26.683,58.403c-0.164,57.691,40.411,127.969,90.626,156.961
	c25.99,15.005,49.452,15.975,66.078,5.446c-0.464,0.294-0.916,0.609-1.39,0.885l9.818-5.706c16.32-9.484,26.441-29.65,26.521-58.31
	C335.72,183.481,295.145,113.202,244.939,84.215z"/>
<path style="fill:#FFE577;" d="M235.121,89.921c50.207,28.987,90.781,99.265,90.618,156.966
	c-0.163,57.691-41.004,80.965-91.209,51.978c-50.215-28.992-90.79-99.27-90.626-156.961
	C144.065,84.203,184.906,60.93,235.121,89.921z"/>
<path style="fill:#B3D8F5;" d="M229.815,78.91c-1.229-0.71-2.422-1.251-3.606-1.737c0.298-1.7,0.476-3.521,0.481-5.484
	c0.051-18.137-12.692-40.218-28.476-49.331c-7.941-4.584-15.133-5.009-20.327-1.991l-10.192,5.923
	c-1.347-1.242-2.772-2.322-4.253-3.177c-4.171-2.408-7.95-2.633-10.677-1.047l-10.986,6.385c-5.073-1.971-9.617-1.802-13.089,0.216
	l-20.683,12.019c0.014-0.008,0.028-0.015,0.043-0.023c-4.308,2.479-6.983,7.78-7.005,15.325
	c-0.043,15.148,10.609,33.599,23.785,41.206l84.147,48.582c6.666,3.848,12.7,4.184,17.045,1.621
	c-0.021,0.013-0.039,0.029-0.06,0.042l20.683-12.019c4.285-2.49,6.942-7.784,6.963-15.311
	C253.65,104.971,242.998,86.521,229.815,78.91z"/>
<path style="fill:#C3DFF7;" d="M177.532,34.378c15.783,9.113,28.527,31.194,28.475,49.331c-0.005,1.964-0.183,3.785-0.481,5.484
	c1.184,0.486,2.377,1.027,3.606,1.737c13.183,7.611,23.835,26.061,23.792,41.201c-0.043,15.148-10.765,21.258-23.948,13.647
	L124.83,97.195c-13.175-7.607-23.828-26.057-23.785-41.206c0.043-15.139,10.765-21.249,23.941-13.643
	c0.929,0.536,1.836,1.137,2.735,1.778c0-0.138-0.015-0.276-0.014-0.414c0.027-9.525,6.764-13.363,15.052-8.578
	c2.706,1.563,5.229,3.856,7.421,6.562C153.837,30.418,164.709,26.974,177.532,34.378z"/>
<g>
	<path style="fill:#59A4FF;" d="M227.774,340.486c-1.598-2.771-3.698-4.908-5.801-6.122c-2.103-1.213-4.208-1.505-5.816-0.585
		l-31.105,17.72l-14.579,8.472c-3.217,1.839-3.234,7.813-0.038,13.354c1.601,2.77,3.702,4.905,5.805,6.119
		c2.103,1.214,4.208,1.507,5.817,0.591l31.1-17.723l14.579-8.472C230.959,352.005,230.976,346.026,227.774,340.486z"/>
	<path style="fill:#59A4FF;" d="M289.408,376.071c-1.598-2.771-3.698-4.908-5.801-6.122c-2.103-1.214-4.21-1.506-5.821-0.588
		l-31.1,17.723l-14.579,8.472c-3.217,1.839-3.234,7.813-0.038,13.354c1.601,2.77,3.701,4.905,5.803,6.118
		c2.103,1.213,4.208,1.507,5.818,0.592l31.1-17.723l14.579-8.472C292.592,387.589,292.609,381.609,289.408,376.071z"/>
	<path style="fill:#59A4FF;" d="M351.042,411.655c-1.6-2.773-3.702-4.91-5.805-6.125c-2.103-1.214-4.208-1.505-5.816-0.586
		l-31.1,17.723l-14.579,8.472c-3.222,1.836-3.239,7.809-0.038,13.354c1.598,2.768,3.698,4.903,5.801,6.117
		c2.103,1.214,4.21,1.508,5.821,0.593l31.1-17.723l0,0l14.579-8.472C354.22,423.17,354.238,417.191,351.042,411.655z"/>
</g>
<g>
	<path style="fill:#9BC9FD;" d="M207.395,342.837c2.103,1.213,4.203,3.351,5.801,6.122c3.201,5.539,3.185,11.518-0.038,13.354
		l-31.1,17.723c-1.609,0.917-3.713,0.624-5.817-0.591s-4.205-3.35-5.805-6.119c-3.196-5.543-3.179-11.516,0.038-13.354l31.105-17.72
		C203.188,341.332,205.293,341.624,207.395,342.837z"/>
	<path style="fill:#9BC9FD;" d="M269.028,378.421c2.103,1.214,4.203,3.351,5.801,6.122c3.201,5.539,3.185,11.518-0.038,13.354
		l-31.1,17.724c-1.612,0.916-3.717,0.622-5.818-0.592c-2.103-1.213-4.203-3.349-5.803-6.118c-3.196-5.543-3.179-11.516,0.038-13.354
		l31.1-17.723C264.818,376.915,266.925,377.207,269.028,378.421z"/>
	<path style="fill:#9BC9FD;" d="M336.463,420.127c3.196,5.536,3.179,11.516-0.038,13.354l-31.1,17.723
		c-1.612,0.916-3.718,0.622-5.821-0.593c-2.103-1.214-4.203-3.35-5.802-6.117c-3.201-5.545-3.185-11.519,0.038-13.354l31.1-17.723
		c1.609-0.92,3.714-0.628,5.816,0.585C332.761,415.218,334.862,417.354,336.463,420.127z"/>
</g>
<g>
	<path style="fill:#59A4FF;" d="M211.447,394.275c-1.598-2.771-3.698-4.908-5.801-6.122c-2.103-1.213-4.208-1.505-5.816-0.585
		l-31.105,17.72l-14.579,8.472c-3.217,1.84-3.234,7.813-0.038,13.354c1.601,2.77,3.702,4.905,5.805,6.119
		c2.103,1.214,4.208,1.507,5.817,0.591l31.1-17.723l14.579-8.472C214.631,405.792,214.648,399.814,211.447,394.275z"/>
	<path style="fill:#59A4FF;" d="M273.08,429.859c-1.598-2.771-3.698-4.908-5.801-6.122c-2.103-1.214-4.21-1.506-5.821-0.588
		l-31.1,17.723l-14.579,8.472c-3.217,1.84-3.234,7.813-0.038,13.354c1.601,2.77,3.701,4.905,5.803,6.118
		c2.103,1.213,4.208,1.507,5.818,0.592l31.1-17.723l14.579-8.472C276.265,441.377,276.281,435.398,273.08,429.859z"/>
	<path style="fill:#59A4FF;" d="M334.713,465.443c-1.601-2.773-3.702-4.91-5.805-6.124c-2.103-1.214-4.208-1.505-5.816-0.586
		l-31.1,17.723l-14.579,8.472c-3.222,1.836-3.239,7.809-0.038,13.354c1.598,2.768,3.698,4.903,5.801,6.117
		c2.103,1.214,4.21,1.508,5.821,0.593l31.1-17.723l0,0l14.579-8.472C337.893,476.959,337.91,470.979,334.713,465.443z"/>
</g>
<g>
	<path style="fill:#9BC9FD;" d="M191.067,396.625c2.103,1.213,4.203,3.351,5.801,6.122c3.201,5.539,3.185,11.518-0.038,13.354
		l-31.1,17.723c-1.609,0.917-3.713,0.624-5.817-0.591c-2.103-1.214-4.205-3.35-5.805-6.119c-3.196-5.543-3.179-11.516,0.038-13.354
		l31.105-17.72C186.859,395.12,188.964,395.412,191.067,396.625z"/>
	<path style="fill:#9BC9FD;" d="M252.7,432.209c2.103,1.214,4.203,3.351,5.801,6.122c3.201,5.539,3.185,11.518-0.038,13.354
		l-31.1,17.723c-1.612,0.916-3.717,0.622-5.818-0.592c-2.103-1.213-4.203-3.349-5.803-6.118c-3.196-5.543-3.179-11.516,0.038-13.354
		l31.1-17.723C248.49,430.703,250.596,430.996,252.7,432.209z"/>
	<path style="fill:#9BC9FD;" d="M320.134,473.915c3.196,5.536,3.179,11.516-0.038,13.354l-31.1,17.723
		c-1.612,0.916-3.718,0.622-5.821-0.593c-2.103-1.214-4.203-3.35-5.801-6.117c-3.201-5.545-3.185-11.518,0.038-13.354l31.1-17.723
		c1.609-0.92,3.714-0.628,5.816,0.585C316.432,469.004,318.534,471.142,320.134,473.915z"/>
</g>
<g style="enable-background:new    ;">
	<polygon style="fill:#FF9911;" points="306.611,432.348 326.614,420.724 246.138,500.376 226.135,512 	"/>
	<polygon style="fill:#FFEB9A;" points="267.725,409.897 287.728,398.273 326.614,420.724 306.611,432.348 	"/>
	<polygon style="fill:#FF9911;" points="296.164,369.359 316.166,357.735 287.728,398.273 267.725,409.897 	"/>
	<polygon style="fill:#FFEB9A;" points="252.575,344.193 272.577,332.568 316.166,357.735 296.164,369.359 	"/>
	<polygon style="fill:#FEDA44;" points="306.611,432.348 226.135,512 258.226,431.536 215.806,407.045 252.575,344.193 
		296.164,369.359 267.725,409.897 	"/>
</g>
<path style="fill:#B3D8F5;" d="M373.006,300.169c-1.961-1.132-3.862-1.995-5.752-2.771c0.475-2.711,0.758-5.616,0.767-8.748
	c0.082-28.928-20.245-64.15-45.421-78.685c-12.665-7.313-24.138-7.99-32.424-3.175l-16.258,9.448
	c-2.15-1.981-4.421-3.704-6.784-5.069c-6.652-3.841-12.679-4.198-17.03-1.67l-17.523,10.183c-8.093-3.145-15.339-2.874-20.877,0.345
	l-32.99,19.171c0.022-0.013,0.046-0.023,0.068-0.036c-6.872,3.955-11.138,12.41-11.173,24.445
	c-0.069,24.162,16.922,53.591,37.937,65.724l134.22,77.492c10.632,6.138,20.256,6.673,27.187,2.587
	c-0.033,0.02-0.062,0.047-0.095,0.067l32.99-19.171c6.834-3.972,11.072-12.418,11.106-24.42
	C411.024,341.739,394.033,312.309,373.006,300.169z"/>
<path style="fill:#C3DFF7;" d="M289.611,229.138c25.175,14.535,45.502,49.757,45.421,78.685c-0.009,3.131-0.293,6.036-0.767,8.748
	c1.89,0.774,3.791,1.639,5.752,2.771c21.027,12.14,38.018,41.569,37.95,65.718c-0.069,24.162-17.171,33.907-38.198,21.768
	l-134.22-77.492c-21.015-12.133-38.006-41.563-37.937-65.724c0.068-24.149,17.17-33.894,38.186-21.761
	c1.482,0.856,2.929,1.814,4.363,2.836c0.001-0.219-0.023-0.44-0.022-0.659c0.043-15.193,10.789-21.316,24.01-13.682
	c4.315,2.492,8.34,6.15,11.836,10.466C251.816,222.823,269.158,217.328,289.611,229.138z"/>
<g>
</g>
<g>
</g>
<g>
</g>
<g>
</g>
<g>
</g>
<g>
</g>
<g>
</g>
<g>
</g>
<g>
</g>
<g>
</g>
<g>
</g>
<g>
</g>
<g>
</g>
<g>
</g>
<g>
</g>
</svg>
