<?xml version="1.0" encoding="iso-8859-1"?>
<!-- Generator: Adobe Illustrator 19.0.0, SVG Export Plug-In . SVG Version: 6.00 Build 0)  -->
<svg version="1.1" id="Layer_1" xmlns="http://www.w3.org/2000/svg" xmlns:xlink="http://www.w3.org/1999/xlink" x="0px" y="0px"
	 viewBox="0 0 512 512" style="enable-background:new 0 0 512 512;" xml:space="preserve">
<polygon style="fill:#EEBF00;" points="470.577,349.269 426.993,280.075 445.93,227.713 388.953,181.905 377.897,109.902 
	322.865,99.693 284.73,27.369 242.579,51.865 191.399,2.201 141.862,30.988 138.807,46.805 122.945,41.237 73.407,70.024 
	90.487,138.143 48.132,162.758 91.714,231.95 72.8,284.326 129.777,330.134 140.81,402.123 195.865,412.346 233.977,484.657 
	276.13,460.161 327.309,509.799 376.846,481.011 379.897,465.219 395.764,470.789 445.3,442.001 428.221,373.883 "/>
<polygon style="fill:#FECE00;" points="235.193,56.156 273.329,128.48 328.361,138.689 339.416,210.693 396.393,256.5 
	377.457,308.863 421.039,378.056 377.207,396.78 395.764,470.789 338.713,450.764 327.309,509.799 272.376,456.52 233.979,484.657 
	195.865,412.346 140.81,402.123 129.777,330.134 72.8,284.326 91.714,231.951 48.132,162.758 91.964,144.033 73.407,70.024 
	130.458,90.05 141.862,30.988 196.795,84.293 "/>
<path style="fill:#FFDE56;" d="M235.442,121.656c-35.842-20.694-68.317-22.614-91.767-8.987l-13.926,8.093
	c0.074-0.043,0.154-0.077,0.229-0.12c-23.282,13.399-37.733,42.051-37.849,82.841c-0.232,81.831,57.321,181.517,128.548,222.639
	c36.865,21.284,70.144,22.659,93.728,7.725c-0.658,0.417-1.298,0.865-1.972,1.257l13.926-8.093
	c23.149-13.453,37.504-42.057,37.62-82.709C364.209,262.457,306.657,162.771,235.442,121.656z"/>
<path style="fill:#FFE577;" d="M221.516,129.748c71.215,41.116,128.767,140.801,128.535,222.646
	c-0.232,81.831-58.161,114.842-129.375,73.727c-71.227-41.123-128.78-140.808-128.548-222.639
	C92.36,121.638,150.289,88.626,221.516,129.748z"/>
<path style="fill:#C3DFF7;" d="M472.315,233.897c-2.05-1.183-4.038-2.087-6.014-2.897c0.496-2.836,0.793-5.873,0.802-9.148
	c0.086-30.252-21.171-67.085-47.498-82.284c-13.245-7.647-25.242-8.356-33.906-3.32l-17.001,9.88
	c-2.248-2.071-4.623-3.874-7.094-5.301c-6.957-4.017-13.259-4.391-17.81-1.746l-18.325,10.65c-8.462-3.289-16.04-3.005-21.832,0.361
	l-34.499,20.048c0.023-0.014,0.048-0.024,0.071-0.038c-7.186,4.135-11.648,12.978-11.684,25.564
	c-0.072,25.267,17.697,56.042,39.673,68.731l140.359,81.037c11.119,6.419,21.183,6.979,28.43,2.705
	c-0.034,0.021-0.065,0.049-0.1,0.07l34.499-20.049c7.147-4.154,11.579-12.985,11.615-25.538
	C512.071,277.368,494.303,246.592,472.315,233.897z"/>
<path style="fill:#D2E7F8;" d="M385.104,159.616c26.326,15.199,47.584,52.033,47.498,82.284c-0.009,3.276-0.306,6.312-0.802,9.148
	c1.976,0.809,3.965,1.713,6.014,2.897c21.989,12.696,39.758,43.471,39.686,68.724c-0.072,25.267-17.956,35.459-39.945,22.764
	l-140.359-81.037c-21.976-12.689-39.745-43.464-39.673-68.731c0.072-25.253,17.956-35.445,39.932-22.756
	c1.55,0.895,3.062,1.898,4.562,2.964c0.001-0.23-0.024-0.46-0.023-0.689c0.045-15.887,11.283-22.291,25.109-14.309
	c4.513,2.605,8.722,6.431,12.377,10.944C345.581,153.012,363.716,147.267,385.104,159.616z"/>
<path style="fill:#C3DFF7;" d="M150.97,329.132c-1.441-0.832-2.839-1.466-4.227-2.036c0.349-1.993,0.558-4.128,0.564-6.43
	c0.061-21.263-14.881-47.152-33.385-57.836c-9.31-5.375-17.742-5.873-23.832-2.333l-11.95,6.945
	c-1.58-1.456-3.249-2.723-4.986-3.726c-4.89-2.823-9.32-3.086-12.517-1.227l-12.88,7.485c-5.948-2.311-11.274-2.112-15.346,0.254
	l-24.248,14.09c0.017-0.009,0.033-0.017,0.05-0.026c-5.051,2.907-8.187,9.122-8.212,17.967c-0.05,17.76,12.438,39.391,27.885,48.309
	l98.655,56.958c7.815,4.512,14.889,4.905,19.983,1.901c-0.024,0.015-0.046,0.034-0.07,0.049l24.248-14.091
	c5.024-2.919,8.139-9.127,8.164-17.95C178.915,359.686,166.426,338.055,150.97,329.132z"/>
<path style="fill:#D2E7F8;" d="M89.674,276.922c18.504,10.683,33.446,36.572,33.385,57.835c-0.006,2.302-0.215,4.437-0.564,6.43
	c1.389,0.569,2.787,1.204,4.227,2.036c15.455,8.923,27.944,30.555,27.894,48.304c-0.05,17.76-12.621,24.923-28.076,16
	l-98.655-56.958C12.439,341.65-0.05,320.019,0,302.259c0.05-17.749,12.621-24.913,28.068-15.994
	c1.089,0.629,2.153,1.334,3.207,2.084c0-0.162-0.017-0.323-0.017-0.485c0.031-11.167,7.93-15.667,17.648-10.057
	c3.172,1.831,6.13,4.521,8.7,7.693C61.894,272.28,74.64,268.242,89.674,276.922z"/>
<g>
</g>
<g>
</g>
<g>
</g>
<g>
</g>
<g>
</g>
<g>
</g>
<g>
</g>
<g>
</g>
<g>
</g>
<g>
</g>
<g>
</g>
<g>
</g>
<g>
</g>
<g>
</g>
<g>
</g>
</svg>
